<mxfile host="app.diagrams.net" modified="2023-11-06T10:41:17.815Z" agent="Mozilla/5.0 (X11; Linux x86_64; rv:106.0) Gecko/20100101 Firefox/106.0" version="22.0.8" etag="h-btKoKFR92rJiFchEkq" type="github">
  <diagram name="Page-1" id="RzLlVkHXyZaTUr8fAiOB">
    <mxGraphModel>
      <root>
        <mxCell id="0" />
        <mxCell id="1" parent="0" />
      </root>
    </mxGraphModel>
  </diagram>
</mxfile>
